<svg preserveAspectRatio="none" width="100%" height="100%" overflow="visible" style="display: block;" viewBox="0 0 972.497 956.122" fill="none" xmlns="http://www.w3.org/2000/svg">
<g id="Group 2743" opacity="0.3">
<path id="Ellipse 477" d="M972.089 478.034C972.089 602.646 922.498 722.317 833.913 811.475C745.328 900.632 624.774 952.206 498.012 955.175C371.249 958.144 248.332 912.273 155.525 827.364C62.7187 742.456 7.38283 625.243 1.34209 500.772C-4.69865 376.301 39.0348 254.445 123.198 161.241C207.36 68.0371 325.277 10.8779 451.752 1.97724C578.226 -6.92343 703.227 33.1403 800.045 113.608C896.862 194.075 957.817 308.564 969.885 432.611" stroke="var(--stroke-0, white)" stroke-width="1.67465" stroke-dasharray="10.05 10.05"/>
<path id="Ellipse 478" d="M509.43 60.0221C592.105 64.6382 671.554 93.6666 737.732 143.437C803.909 193.206 853.841 261.483 881.215 339.631C908.589 417.779 912.174 502.29 891.517 582.475C870.861 662.661 826.89 734.921 765.166 790.117C703.442 845.313 626.737 880.966 544.75 892.568C462.763 904.17 379.177 891.199 304.561 855.296C229.946 819.393 167.653 762.17 125.559 690.863C83.4657 619.557 63.4621 537.37 68.0782 454.695" stroke="var(--stroke-0, white)" stroke-width="1.67465" stroke-dasharray="10.05 10.05"/>
<path id="Ellipse 479" d="M783.092 629.9C762.672 668.857 734.78 703.41 701.007 731.587C667.234 759.764 628.241 781.013 586.256 794.121C544.271 807.228 500.115 811.938 456.31 807.981C412.504 804.024 369.907 791.478 330.951 771.058C291.994 750.639 257.441 722.747 229.264 688.973C201.087 655.2 179.838 616.208 166.73 574.223C153.622 532.238 148.913 488.082 152.87 444.277C156.827 400.471 169.373 357.874 189.792 318.918C210.212 279.961 238.104 245.408 271.877 217.231C305.65 189.054 344.643 167.805 386.628 154.697C428.613 141.589 472.769 136.879 516.574 140.836C560.38 144.793 602.977 157.34 641.933 177.759C680.89 198.179 715.443 226.071 743.62 259.844C771.797 293.617 793.046 332.61 806.154 374.595C819.262 416.58 823.971 460.736 820.014 504.541C816.057 548.346 803.511 590.943 783.092 629.9L783.092 629.9Z" stroke="var(--stroke-0, white)" stroke-width="1.67465" stroke-dasharray="10.05 10.05"/>
<path id="Ellipse 480" d="M708.929 591.027C693.614 620.245 672.695 646.16 647.365 667.292C622.035 688.425 592.791 704.362 561.302 714.193C529.814 724.024 496.697 727.556 463.843 724.588C430.989 721.62 399.041 712.211 369.823 696.896C340.606 681.582 314.691 660.662 293.558 635.332C272.425 610.003 256.489 580.758 246.658 549.269C236.827 517.781 233.295 484.664 236.262 451.81C239.23 418.956 248.64 387.008 263.954 357.79C279.269 328.573 300.188 302.658 325.518 281.525C350.848 260.393 380.092 244.456 411.581 234.625C443.07 224.794 476.187 221.262 509.041 224.229C541.895 227.197 573.843 236.607 603.06 251.922C632.278 267.236 658.193 288.155 679.325 313.485C700.458 338.815 716.395 368.059 726.226 399.548C736.056 431.037 739.589 464.154 736.621 497.008C733.653 529.862 724.244 561.81 708.929 591.027L708.929 591.027Z" stroke="var(--stroke-0, white)" stroke-width="1.67465" stroke-dasharray="10.05 10.05"/>
</g>
</svg>
