<svg preserveAspectRatio="xMidYMid meet" width="100%" height="100%" overflow="visible" style="display: block;" viewBox="0 0 39.6194 30.6229" fill="none" xmlns="http://www.w3.org/2000/svg">
<g id="Group">
<path id="Vector" d="M2.47461 20.1469C0.979137 20.1469 -0.190949 18.8228 0.025977 17.3407C0.85424 11.6196 3.60854 6.92618 8.64057 3.5963C15.6348 -1.03457 22.9741 -1.17949 30.1951 3.08249C36.0061 6.51447 38.9478 12.2619 39.5985 17.3242C39.7892 18.8163 38.652 20.1403 37.1532 20.1403H37.1203C35.8812 20.1403 34.8492 19.2148 34.6717 17.9863C34.0571 13.6946 31.8878 10.2264 28.1541 7.63761C25.4063 5.73388 22.2905 4.87753 18.9643 5.08832C12.4269 5.50332 6.19194 10.1243 4.91339 18.0422C4.71947 19.2477 3.694 20.1436 2.47461 20.1436V20.1469Z" fill="#1C8380"/>
<path id="Vector_2" d="M9.38784 20.1232C9.38784 14.3627 13.9663 9.68896 19.8069 9.68896C25.7395 9.68896 29.9597 14.4154 30.2226 19.5633C30.5414 25.8311 25.6113 30.4357 20.2046 30.6168C14.0978 30.821 9.30239 25.8575 9.38784 20.1232V20.1232ZM25.253 20.1661C25.3911 17.3665 23.0345 14.6327 19.7937 14.6459C16.6647 14.6591 14.3015 17.1919 14.3509 20.1891C14.4002 23.2292 16.7863 25.6599 19.82 25.6566C22.8405 25.6566 25.2563 23.216 25.253 20.1661Z" fill="#36ABA7"/>
</g>
</svg>
