<svg preserveAspectRatio="xMidYMid meet" width="100%" height="100%" overflow="visible" style="display: block;" viewBox="0 0 104.813 31.3597" fill="none" xmlns="http://www.w3.org/2000/svg">
<g id="Group">
<path id="Vector" d="M9.09513 23.3133C8.70729 23.478 8.34246 23.4911 8.00721 23.3594C7.66868 23.2276 7.39916 22.9641 7.19538 22.5755L0.174866 9.21315C-0.0289128 8.8245 -0.0552054 8.44903 0.0992722 8.09331C0.25375 7.7343 0.523264 7.47411 0.911102 7.30942C1.29894 7.14474 1.66706 7.13157 2.01545 7.26331C2.36385 7.39835 2.63008 7.65855 2.81085 8.0472L9.52241 21.4095C9.72619 21.7982 9.80178 22.1737 9.75248 22.5294C9.69989 22.8884 9.47968 23.1486 9.09513 23.3133V23.3133ZM5.47969 31.3597C5.27591 31.3597 5.02941 31.2971 4.74346 31.1752C3.84289 30.7668 3.59967 30.1212 4.00723 29.2385L13.3548 8.07684C13.7623 7.2172 14.4065 6.97018 15.2874 7.33907C16.2077 7.72772 16.4608 8.37327 16.0532 9.27573L6.67279 30.4078C6.42628 31.0435 6.02858 31.3597 5.47641 31.3597H5.47969Z" fill="white"/>
<path id="Vector_2" d="M26.0449 24.1421C24.6349 24.1421 23.3728 23.8391 22.2585 23.2363C21.1443 22.6336 20.2668 21.7476 19.6226 20.5784C18.9784 19.4124 18.6562 17.9764 18.6562 16.2769V8.72122C18.6562 8.26999 18.8042 7.89781 19.1 7.60138C19.3958 7.30495 19.7705 7.15674 20.2175 7.15674C20.6645 7.15674 21.0392 7.30495 21.335 7.60138C21.6308 7.89781 21.7787 8.27329 21.7787 8.72122V16.2769C21.7787 17.423 21.9923 18.3716 22.4229 19.1193C22.8534 19.8669 23.4352 20.4203 24.1714 20.7793C24.9077 21.1383 25.7359 21.3161 26.6529 21.3161C27.5699 21.3161 28.3128 21.1416 28.9964 20.7925C29.68 20.4433 30.2289 19.9723 30.6365 19.3795C31.044 18.7866 31.2511 18.1213 31.2511 17.3835H33.1837C33.1837 18.6549 32.8715 19.8011 32.2503 20.8254C31.6258 21.8497 30.7778 22.6567 29.7063 23.2528C28.6349 23.8457 27.4122 24.1421 26.0449 24.1421V24.1421ZM32.8189 23.9873C32.3686 23.9873 31.9972 23.8391 31.7014 23.5426C31.4056 23.2462 31.2577 22.8707 31.2577 22.4228V8.72452C31.2577 8.25352 31.4056 7.87475 31.7014 7.58821C31.9972 7.30166 32.3719 7.15674 32.8189 7.15674C33.2659 7.15674 33.6669 7.30166 33.9528 7.58821C34.2388 7.87475 34.3834 8.25352 34.3834 8.72452V22.4228C34.3834 22.874 34.2388 23.2462 33.9528 23.5426C33.6669 23.8391 33.2889 23.9873 32.8189 23.9873Z" fill="white"/>
<path id="Vector_3" d="M41.4005 23.9909C40.9502 23.9909 40.5887 23.8526 40.3126 23.576C40.0365 23.2993 39.8984 22.937 39.8984 22.4858V1.5052C39.8984 1.05397 40.0365 0.691667 40.3126 0.415C40.5887 0.138333 40.9502 0 41.4005 0C41.8508 0 42.2123 0.138333 42.4884 0.415C42.7645 0.691667 42.9025 1.05397 42.9025 1.5052V22.4825C42.9025 22.9337 42.7645 23.296 42.4884 23.5727C42.2123 23.8493 41.8508 23.9877 41.4005 23.9877V23.9909ZM42.8401 17.8483L40.9403 15.7601L50.3503 7.34484C50.656 7.05829 50.9978 6.92655 51.3758 6.94631C51.7538 6.96607 52.0759 7.13075 52.3421 7.43706C52.628 7.74337 52.7595 8.08262 52.7398 8.45151C52.7201 8.8204 52.5557 9.14647 52.2501 9.43301L42.8401 17.8483V17.8483ZM52.3421 23.8361C52.0134 24.1029 51.6519 24.2215 51.2542 24.1886C50.8565 24.1589 50.5245 23.9778 50.2583 23.6517L44.0365 15.9413L46.1827 13.9124L52.559 21.7743C52.8253 22.1037 52.9436 22.4561 52.9107 22.8349C52.8811 23.2136 52.6905 23.5463 52.3421 23.8329V23.8361Z" fill="white"/>
<path id="Vector_4" d="M62.7947 24.1135C61.3025 24.1135 59.9648 23.7413 58.7783 22.9936C57.5918 22.246 56.6583 21.2315 55.9747 19.9536C55.291 18.6757 54.9492 17.2265 54.9492 15.606C54.9492 13.9855 55.3206 12.533 56.0667 11.2452C56.8128 9.95738 57.8251 8.93635 59.1004 8.18869C60.3757 7.44103 61.812 7.06885 63.406 7.06885C65.0001 7.06885 66.4299 7.44103 67.6985 8.18869C68.964 8.93635 69.973 9.95409 70.7191 11.2452C71.4652 12.5363 71.8366 13.9888 71.8366 15.606H70.6402C70.6402 17.2232 70.2984 18.6724 69.6147 19.9536C68.9311 21.2348 67.9944 22.246 66.8111 22.9936C65.6246 23.7413 64.2869 24.1135 62.7947 24.1135ZM63.4093 21.3501C64.4512 21.3501 65.3814 21.0998 66.1998 20.5959C67.0182 20.0952 67.6591 19.4102 68.1324 18.5373C68.6024 17.6678 68.8358 16.6896 68.8358 15.6027C68.8358 14.5158 68.6024 13.5079 68.1324 12.6384C67.6624 11.7689 67.0182 11.0838 66.1998 10.5799C65.3814 10.0792 64.4512 9.82563 63.4093 9.82563C62.3674 9.82563 61.4636 10.0759 60.6353 10.5799C59.807 11.0805 59.153 11.7689 58.6731 12.6384C58.1932 13.5079 57.9533 14.496 57.9533 15.6027C57.9533 16.7094 58.1932 17.6645 58.6731 18.5373C59.153 19.4069 59.807 20.0952 60.6353 20.5959C61.4636 21.0965 62.3872 21.3501 63.4093 21.3501ZM70.2754 24.0213C69.8251 24.0213 69.4537 23.8731 69.1579 23.5766C68.8621 23.2802 68.7142 22.9047 68.7142 22.4568V17.7567L69.2959 14.5026L71.8399 15.6093V22.4601C71.8399 22.9113 71.692 23.2835 71.3962 23.5799C71.1003 23.8763 70.7257 24.0246 70.2787 24.0246L70.2754 24.0213Z" fill="white"/>
<path id="Vector_5" d="M75.7912 10.4443C75.3606 10.4443 75.0155 10.3225 74.7493 10.0754C74.483 9.82841 74.3516 9.5221 74.3516 9.15321C74.3516 8.7448 74.483 8.41543 74.7493 8.1717C75.0155 7.92468 75.3639 7.80281 75.7912 7.80281H82.8708C83.3014 7.80281 83.6465 7.92468 83.9127 8.1717C84.179 8.41873 84.3104 8.7448 84.3104 9.15321C84.3104 9.5221 84.1757 9.82841 83.9127 10.0754C83.6465 10.3225 83.2981 10.4443 82.8708 10.4443H75.7912ZM82.5947 23.9911C81.5726 23.9911 80.6523 23.7309 79.8372 23.2072C79.0188 22.6835 78.3746 21.9721 77.9045 21.0729C77.4345 20.1705 77.2012 19.1593 77.2012 18.0329V3.37944C77.2012 2.92821 77.3425 2.55932 77.6317 2.27278C77.921 1.98623 78.2858 1.84131 78.7361 1.84131C79.1864 1.84131 79.5545 1.98623 79.8404 2.27278C80.1264 2.55932 80.271 2.92821 80.271 3.37944V18.0296C80.271 18.8497 80.4945 19.5348 80.9448 20.0881C81.3951 20.6415 81.944 20.9181 82.6013 20.9181H83.6432C84.0113 20.9181 84.3236 21.0631 84.5767 21.3496C84.833 21.6361 84.9612 22.005 84.9612 22.4563C84.9612 22.9075 84.7936 23.2764 84.4551 23.5629C84.1165 23.8495 83.6827 23.9944 83.1535 23.9944H82.6013L82.5947 23.9911Z" fill="white"/>
<path id="Vector_6" d="M96.3859 24.1133C94.7293 24.1133 93.27 23.751 92.0013 23.0231C90.7326 22.2952 89.7368 21.2939 89.0137 20.0127C88.2873 18.7347 87.9258 17.2625 87.9258 15.6058C87.9258 13.9491 88.2873 12.4472 89.0137 11.1659C89.74 9.888 90.7359 8.88344 92.0013 8.15554C93.2667 7.42764 94.7293 7.06534 96.3859 7.06534C98.0424 7.06534 99.4721 7.42764 100.738 8.15554C102.003 8.88344 102.999 9.88471 103.725 11.1659C104.452 12.4472 104.813 13.926 104.813 15.6058C104.813 17.2855 104.455 18.7347 103.742 20.0127C103.025 21.2939 102.036 22.2952 100.767 23.0231C99.4984 23.751 98.0391 24.1133 96.3826 24.1133H96.3859ZM96.3859 21.3499C97.4475 21.3499 98.3875 21.1029 99.2059 20.6121C100.024 20.1214 100.662 19.4462 101.122 18.5832C101.582 17.7236 101.812 16.7289 101.812 15.6025C101.812 14.4761 101.582 13.4781 101.122 12.6086C100.662 11.739 100.024 11.0572 99.2059 10.5665C98.3875 10.0757 97.4475 9.82872 96.3859 9.82872C95.3242 9.82872 94.3842 10.0757 93.5658 10.5665C92.7474 11.0572 92.1032 11.739 91.6332 12.6086C91.1632 13.4781 90.9266 14.4761 90.9266 15.6025C90.9266 16.7289 91.1599 17.7236 91.6332 18.5832C92.1032 19.4429 92.7474 20.1181 93.5658 20.6121C94.3842 21.1029 95.3242 21.3499 96.3859 21.3499Z" fill="white"/>
</g>
</svg>
